<svg xmlns="http://www.w3.org/2000/svg" width="1280" height="720" viewBox="0 0 1280 720">
<rect width="1280" height="720" fill="#0f172a"/>
<path d="M0 80H1280M0 160H1280M0 240H1280M0 320H1280M0 400H1280M0 480H1280M0 560H1280M0 640H1280M80 0V720M160 0V720M240 0V720M320 0V720M400 0V720M480 0V720M560 0V720M640 0V720M720 0V720M800 0V720M880 0V720M960 0V720M1040 0V720M1120 0V720M1200 0V720" stroke="#334155" opacity="0.32"/>
<rect x="72" y="72" width="1136" height="576" rx="30" fill="#111827" stroke="#334155" stroke-width="2"/>
<rect x="72" y="72" width="1136" height="56" rx="30" fill="#111827" stroke="#334155" stroke-width="2"/>
<circle cx="112" cy="100" r="8" fill="#22c55e"/><circle cx="140" cy="100" r="8" fill="#334155"/><circle cx="168" cy="100" r="8" fill="#334155"/>
<text x="104" y="215" fill="#22c55e" font-family="Menlo,Consolas,monospace" font-size="28">~/blog/2018</text>
<text x="104" y="305" fill="#e5e7eb" font-family="Menlo,Consolas,monospace" font-size="62" font-weight="700">Eclipse创建Java项目</text>
<text x="104" y="356" fill="#e5e7eb" opacity="0.62" font-family="Menlo,Consolas,monospace" font-size="24">Eclipse IDE creating a Java project HelloWorldDemo with src folder a</text>
<rect x="104" y="396" width="640" height="154" rx="16" fill="#0f172a" stroke="#334155"/>
<text x="136" y="445" fill="#22c55e" font-family="Menlo,Consolas,monospace" font-size="24">$ javac Main.java</text>
<text x="136" y="490" fill="#e5e7eb" opacity="0.86" font-family="Menlo,Consolas,monospace" font-size="24">$ java Main</text>
<text x="136" y="535" fill="#e5e7eb" opacity="0.58" font-family="Menlo,Consolas,monospace" font-size="24">status: learning</text>
<text x="902" y="596" fill="#e5e7eb" opacity="0.35" font-family="Menlo,Consolas,monospace" font-size="24">Java · SQL · Linux</text>
</svg>